# xmcd CD database file
#
# Track frame offsets:
#	150
#	16071
#	28656
#	43783
#	72090
#	92740
#	113826
#	128595
#
# Disc length: 1957 seconds
#
# Revision: 0
# Processed by: cddbd v1.5.2PL0 Copyright (c) Steve Scherf et al.
# Submitted via: CDex 1.75
#
DISCID=5d07a308
DTITLE=Lalo Schifrin - Lalo =Brilliance (The Piano Of Lalo Schifrin)
DYEAR=1962
DGENRE=Jazz
TTITLE0=The Snake's Dance
TTITLE1=An Evening In Sao Paulo
TTITLE2=Desafinado
TTITLE3=Kush
TTITLE4=Rhythm-A-Ning
TTITLE5=Mount Olive
TTITLE6=Cubano Be
TTITLE7=Sphayros
EXTD=YEAR: 1962
EXTT0=
EXTT1=
EXTT2=
EXTT3=
EXTT4=
EXTT5=
EXTT6=
EXTT7=
PLAYORDER=
